# xmcd
#
# Track frame offsets: 
#        182
#        12857
#        28682
#        40030
#        58700
#        106587
#        135785
#        155595
#        168575
#        185702
#        196562
#        211277
#        228882
#        248602
#        263042
#        271747
#
# Disc length: 3971 seconds
#
# Revision: 6
# Processed by: cddbd v1.5.2PL0 Copyright (c) Steve Scherf et al.
# Submitted via: ExactAudioCopyFreeDBPlugin 1.0
#
DISCID=c20f8110
DTITLE=Various Artist - born with the blues (volume two)
DYEAR=1996
DGENRE=Blues
TTITLE0=John Mayall with Eric Clapton - On Top Of The World
TTITLE1=Isaac Scott - Don't Let My Baby Ride
TTITLE2=John Lee Hooker - Boom Boom
TTITLE3=Fleetwood Mac - Red Hot Mama (Live)
TTITLE4=Jimi Hendrix - Red House (Live)
TTITLE5=Buddy Guy and Junior Wells - How Can One Woman Be So Mean (Live)
TTITLE6=Buster Benton - Leave Me Alone
TTITLE7=Muddy Waters - Hoochie Coochie Man (Live)
TTITLE8=Savoy Brown - Cold Blooded Woman
TTITLE9=John Lee Hooker - No Shoes
TTITLE10=Big Walter ''Shakey'' Horton - Easy
TTITLE11=Muddy Waters - Walking Blues (Live)
TTITLE12=Fenton Robinson - Somebody Loan Me A Dime (Live)
TTITLE13=Billy Boy Arnold with Tony McPhee - I Wish You Would
TTITLE14=Earl Hooker - The Foxtrot
TTITLE15=Todd Sharpville - Can't Hold Out
EXTD=
EXTT0=
EXTT1=
EXTT2=
EXTT3=Original Line up including Mick \nFleetwood (Drums) and Peter Gr
EXTT3=een \n(Lead Guitar)
EXTT4=
EXTT5=
EXTT6=
EXTT7=
EXTT8=
EXTT9=
EXTT10=
EXTT11=
EXTT12=
EXTT13=
EXTT14=
EXTT15=
PLAYORDER=
